<svg 
 xmlns="http://www.w3.org/2000/svg"
 xmlns:xlink="http://www.w3.org/1999/xlink"
 width="1.588cm" height="1.552cm">
<path fill-rule="evenodd"  stroke-width="1px" stroke="rgb(176, 161, 38)" fill="rgb(252, 252, 252)"
 d="M20.230,4.203 C21.577,3.257 23.406,3.257 24.754,4.203 C27.981,6.472 27.288,6.255 31.285,6.243 C32.955,6.237 34.435,7.271 34.944,8.798 C36.169,12.455 35.739,11.890 38.981,14.138 C40.336,15.076 40.902,16.749 40.380,18.272 C39.135,21.914 39.129,21.214 40.380,24.873 C40.902,26.396 40.336,28.068 38.981,29.007 C35.741,31.255 36.169,30.690 34.944,34.346 C34.435,35.874 32.955,36.908 31.285,36.903 C27.286,36.889 27.981,36.673 24.754,38.942 C23.406,39.889 21.577,39.889 20.230,38.942 C17.002,36.674 17.697,36.888 13.699,36.903 C12.030,36.908 10.550,35.874 10.040,34.346 C8.817,30.685 9.238,31.252 6.002,29.007 C4.649,28.068 4.083,26.396 4.605,24.873 C5.851,21.230 5.856,21.930 4.605,18.272 C4.083,16.749 4.649,15.076 6.002,14.138 C9.236,11.895 8.816,12.463 10.040,8.798 C10.550,7.271 12.030,6.237 13.699,6.243 C17.686,6.255 16.983,6.486 20.230,4.203 "/>
<path fill-rule="evenodd"  stroke-width="1px" stroke="rgb(176, 161, 38)" fill="rgb(252, 252, 252)"
 d="M32.884,28.743 L12.846,28.743 C12.632,28.743 12.458,28.640 12.458,28.513 L12.458,17.604 C12.458,17.384 12.846,17.146 12.846,17.146 C12.846,17.146 22.409,11.524 22.591,11.416 C22.773,11.309 23.024,11.343 23.142,11.413 C23.261,11.483 32.824,17.146 32.824,17.146 C32.824,17.146 33.250,17.399 33.272,17.604 L33.272,28.513 C33.272,28.640 33.098,28.743 32.884,28.743 ZM30.516,18.453 L23.498,14.319 C23.176,14.128 22.652,14.128 22.329,14.319 L15.312,18.453 C14.989,18.644 14.989,18.952 15.312,19.143 L22.329,23.277 C22.652,23.468 23.176,23.468 23.498,23.277 L30.516,19.143 C30.839,18.952 30.839,18.644 30.516,18.453 Z"/>
</svg>